<?xml version="1.0" standalone="no"?>
<!DOCTYPE svg PUBLIC "-//W3C//DTD SVG 20010904//EN"
 "http://www.w3.org/TR/2001/REC-SVG-20010904/DTD/svg10.dtd">
<svg version="1.0" xmlns="http://www.w3.org/2000/svg"
 width="1536.000000pt" height="1536.000000pt" viewBox="0 0 1536.000000 1536.000000"
 preserveAspectRatio="xMidYMid meet">

<g transform="translate(0.000000,1536.000000) scale(0.100000,-0.100000)"
fill="#000000" stroke="none">
<path d="M2984 10126 c-227 -44 -380 -124 -531 -279 -131 -134 -217 -287 -263
-466 -72 -285 -39 -578 107 -929 l55 -133 -31 -112 c-16 -62 -38 -154 -48
-204 -9 -51 -20 -93 -25 -93 -4 0 -29 13 -56 30 -207 127 -532 148 -780 49
-301 -120 -482 -402 -482 -751 1 -343 180 -626 471 -741 115 -46 193 -60 329
-60 232 1 428 76 584 224 l82 77 49 -96 c27 -54 79 -142 116 -197 71 -106 211
-271 252 -298 19 -12 25 -27 30 -74 23 -216 129 -436 286 -594 210 -210 493
-319 826 -319 346 0 652 122 896 357 243 234 371 530 386 889 l6 150 75 -37
c113 -57 231 -82 382 -82 242 1 434 78 596 239 68 67 89 96 127 175 59 124 77
198 84 347 9 189 -29 365 -108 499 -55 94 -180 212 -277 262 -287 148 -679
117 -928 -73 -150 -116 -257 -301 -288 -501 l-11 -74 -68 60 c-141 122 -287
206 -500 285 -67 25 -123 47 -125 49 -2 2 28 13 67 25 288 85 502 298 596 590
39 122 46 316 16 443 -37 157 -116 299 -228 414 -175 177 -383 264 -715 298
-57 6 -58 7 -58 38 0 52 -38 176 -78 252 -49 95 -181 227 -277 277 -156 81
-376 116 -541 84z m307 -40 c287 -61 497 -260 545 -516 9 -45 14 -83 12 -85
-2 -2 -52 -8 -113 -15 -580 -61 -1010 -377 -1296 -954 l-69 -139 -39 84 c-49
105 -94 237 -118 349 -14 66 -18 127 -17 270 0 167 3 194 27 285 98 364 381
643 732 720 80 18 254 18 336 1z m559 -688 c-1 -134 -61 -281 -154 -373 -73
-72 -145 -114 -269 -158 -90 -31 -97 -31 -299 -35 -170 -3 -208 -6 -212 -18
-8 -21 11 -100 31 -130 37 -58 43 -58 483 -65 337 -5 415 -9 465 -23 133 -37
222 -101 265 -192 70 -144 39 -377 -67 -494 -88 -98 -165 -120 -412 -120
l-181 0 0 -115 0 -115 193 0 c216 0 297 -12 392 -59 162 -80 241 -211 252
-421 17 -343 -156 -533 -487 -534 -279 0 -449 140 -532 439 -21 77 -22 101
-27 680 l-6 600 -26 56 c-25 53 -59 86 -104 103 -41 15 -129 25 -171 19 l-44
-6 0 -293 c0 -162 -2 -294 -5 -294 -17 0 -169 85 -220 122 -82 60 -192 175
-260 270 -68 93 -69 82 19 263 282 578 761 917 1319 933 l57 2 0 -42z m210 27
c166 -25 291 -71 425 -159 258 -169 388 -431 372 -749 -7 -137 -32 -231 -93
-348 -84 -157 -238 -306 -381 -365 -34 -15 -34 -14 19 38 129 126 183 313 144
496 -48 229 -216 385 -492 458 -91 25 -119 27 -353 32 l-255 4 57 24 c82 33
189 107 242 167 83 94 145 259 145 383 0 33 1 34 38 34 20 0 80 -7 132 -15z
m-1601 -1254 c86 -119 237 -244 393 -326 l83 -42 6 -384 c7 -407 11 -452 62
-597 108 -310 451 -498 876 -479 285 13 515 106 669 271 34 37 76 94 93 128
88 175 92 399 10 593 l-22 50 25 -30 c38 -46 84 -144 108 -232 30 -109 33
-426 4 -548 -103 -448 -459 -718 -976 -742 -287 -12 -553 61 -805 223 l-77 49
5 100 c3 55 11 132 18 170 18 104 -1 152 -52 124 -31 -16 -40 -54 -47 -193
l-7 -130 -78 90 c-102 117 -207 273 -273 407 l-53 109 28 51 c95 170 122 448
65 662 -27 100 -97 234 -164 314 l-62 74 21 114 c12 62 33 150 47 195 30 94
19 96 103 -21z m-579 -336 c160 -63 256 -196 297 -410 19 -98 13 -372 -10
-451 -37 -131 -130 -250 -236 -304 -269 -135 -552 31 -638 375 -23 94 -23 320
0 425 44 198 157 328 327 377 60 17 202 10 260 -12z m4005 -19 c125 -62 207
-173 251 -341 23 -87 26 -376 5 -470 -55 -251 -276 -417 -498 -376 -179 33
-317 179 -379 401 -26 90 -26 354 -1 454 63 251 225 382 460 372 77 -3 98 -8
162 -40z m-1185 -391 c41 -30 100 -79 132 -109 55 -54 56 -57 63 -123 21 -233
99 -411 242 -550 l64 -62 6 -83 c13 -191 -34 -406 -132 -603 -162 -327 -383
-518 -730 -634 -322 -107 -633 -89 -920 54 -294 145 -473 387 -510 689 l-7 60
29 -19 c198 -131 383 -205 603 -241 206 -34 509 -1 690 75 234 98 437 300 522
518 68 175 97 380 78 550 -24 219 -93 372 -234 522 l-61 64 45 -26 c25 -15 79
-51 120 -82z"/>
<path d="M6783 8513 l-23 -4 0 -812 c0 -890 -1 -875 60 -1002 81 -169 243
-254 486 -255 86 0 280 24 293 36 3 3 -4 41 -15 87 -17 70 -23 82 -40 80 -10
-1 -55 -7 -99 -13 -165 -21 -262 19 -321 130 -18 33 -19 70 -22 542 l-3 508
243 2 243 3 3 98 3 97 -246 0 -245 0 0 158 c0 222 -19 275 -114 318 -50 22
-159 37 -203 27z"/>
<path d="M10595 8427 c-73 -86 -193 -184 -306 -252 -93 -55 -284 -140 -396
-176 l-73 -23 0 -102 0 -102 78 24 c203 63 423 82 540 46 104 -33 177 -98 221
-197 8 -16 16 -73 19 -126 l5 -96 -224 -6 c-227 -6 -293 -15 -409 -55 -249
-87 -373 -245 -372 -477 1 -257 160 -415 450 -444 201 -21 395 40 519 161 l42
41 7 -29 c21 -91 97 -140 232 -151 l82 -6 0 554 c0 438 -3 568 -14 621 -52
245 -238 385 -541 407 l-90 7 85 43 c127 64 246 147 333 230 70 67 147 159
147 175 0 3 -62 6 -137 5 l-138 -1 -60 -71z m85 -1335 c0 -163 -12 -214 -70
-294 -76 -106 -206 -172 -340 -172 -62 0 -84 5 -127 27 -94 49 -132 122 -132
257 -1 102 24 166 84 219 86 75 187 99 418 100 l167 1 0 -138z"/>
<path d="M9055 8046 c-414 -68 -670 -352 -692 -766 -6 -131 14 -275 56 -390
82 -223 239 -360 482 -421 120 -29 333 -37 459 -15 81 14 216 51 229 62 2 2
-9 46 -24 98 l-28 95 -39 -20 c-109 -56 -322 -70 -448 -30 -215 68 -332 279
-332 601 -1 147 17 241 63 337 118 248 444 334 752 199 16 -7 17 1 17 97 l0
105 -32 11 c-137 44 -328 59 -463 37z"/>
<path d="M13555 8049 c-332 -25 -593 -222 -694 -525 -112 -332 -17 -707 229
-912 159 -131 405 -200 623 -172 173 21 330 86 451 186 165 136 252 324 263
569 6 141 -6 234 -48 360 -113 337 -425 524 -824 494z m171 -203 c163 -43 271
-164 326 -365 31 -111 31 -390 0 -505 -52 -189 -185 -316 -361 -347 -180 -32
-365 75 -455 264 -60 125 -71 182 -71 367 0 142 4 176 24 247 24 85 72 177
118 225 100 105 275 153 419 114z"/>
<path d="M11740 8030 c-242 -29 -383 -147 -447 -371 -16 -58 -18 -113 -18
-619 l0 -555 170 0 170 0 5 600 c5 656 2 618 68 687 53 56 112 72 236 65 55
-3 114 -9 129 -13 l28 -6 -3 98 -3 99 -45 6 c-90 13 -226 17 -290 9z"/>
<path d="M7785 8008 c-3 -7 -4 -353 -3 -768 l3 -755 170 0 170 0 0 765 0 765
-168 3 c-128 2 -169 0 -172 -10z"/>
<path d="M12230 7250 l0 -770 170 0 170 0 0 770 0 770 -170 0 -170 0 0 -770z"/>
</g>
</svg>
