<svg xmlns="http://www.w3.org/2000/svg" viewBox="0 0 2000 260.2" style="enable-background:new 0 0 2000 260.2" xml:space="preserve"><path d="M431.4 124.6c21.1-11.1 36.4-30.1 36.4-55.4 0-44-34-69.2-93.1-69.2H262.9v259.3h120.7c58 0 94.1-28.1 94.1-73.2 0-30.5-20.1-50.8-46.3-61.5zm-55.7-9.8h-69.5V21.5h65.5c36.9 0 52.6 14.3 52.6 47.6 0 32.3-14.5 45.7-48.6 45.7zm-69.5 122.9V136.3h68.9c21.8 0 58.3 6.5 58.3 50.4 0 35.8-15.8 51.1-53 51.1h-74.2zM0 148.3c0-61.8 47.1-112 105.3-112 58.1 0 105.3 50.2 105.3 112s-47.3 112-105.3 112C47.3 260.2 0 210 0 148.3zm40.8 0c0 56.6 24.1 90.4 64.5 90.4v-.1c40.2 0 64.2-33.8 64.2-90.3s-23.8-90.4-64.2-90.4-64.5 33.8-64.5 90.4zm473.4 0c0-61.8 47.1-112 105.3-112 58.1 0 105.3 50.2 105.3 112s-47.3 112-105.3 112-105.3-50.3-105.3-112zm40.8 0c0 56.6 24.1 90.4 64.5 90.4v-.1c40.2 0 64.2-33.8 64.2-90.3s-23.8-90.4-64.2-90.4S555 91.7 555 148.3zm255.9-87.9h-77.1V39.1h193.3v21.3h-77.4v196.7h-38.8V60.4zm194.4-21.3h-39.1V257h39.1V39.1zm148.6 199c17.3 0 48.3-5.5 61.5-42l3.8-10.6 18.9 9.4-3.1 8.6c-13.1 35.7-43.3 56.3-82.8 56.3-59.4 0-104.1-48-104.1-111.5 0-62.7 45.7-112 104.1-112 39.3 0 69.3 20.7 82.2 56.9l3 8.6-18.9 9.6-3.8-10.7c-9.6-27-31.8-42.5-61-42.5-40.6 0-64.8 33.5-64.8 89.9.2 56.4 24.4 90 65 90zm494.1-20.5-11.3-33.1c-4.5-12.2-13-22.4-24.2-29 20.3-9.1 37.9-26.1 37.9-53.4 0-39.4-31.5-62.9-84.3-62.9h-79.4v217.9h39.1v-92.8h34.1c25 0 33 10 39.9 29.8l11 31.4c2.8 9.6 7 18.7 12.3 27.1l3 4.3h52.5l-18.6-17.5c-5.6-6.1-9.8-13.6-12-21.8zM1525.9 60.4h37.7c32.8 0 46.9 12.5 46.9 41.9 0 28.2-14.4 40.8-46.6 40.8H1526c-.1-.1-.1-82.7-.1-82.7zm181.5-21.3h39.1V257h-39.1V39.1zm187.3-2.8c-58.1 0-105.3 50.2-105.3 112s47.4 112 105.3 112c58 0 105.3-50.2 105.3-112s-47.3-112-105.3-112zm0 21.3c40.2 0 64.2 33.8 64.2 90.4s-24 90.4-64.2 90.4-64.7-33.7-64.7-90.3c0-56.6 24.3-90.5 64.7-90.5zM1356.3 4.5h22.9l-17.7 42.2 93.4 210.4h-41.5l-32.9-74h-77l-31.9 73.9h-22.9L1356.3 4.5zm-15.4 89.8-28.6 67.3h58.5l-29.9-67.3z" style="fill:#fff"/></svg>